<?xml version="1.0" standalone="no"?>
<!DOCTYPE svg PUBLIC "-//W3C//DTD SVG 20010904//EN"
 "http://www.w3.org/TR/2001/REC-SVG-20010904/DTD/svg10.dtd">
<svg version="1.0" xmlns="http://www.w3.org/2000/svg"
 width="792.000000pt" height="792.000000pt" viewBox="0 0 792.000000 792.000000"
 preserveAspectRatio="xMidYMid meet">
<metadata>
Created by potrace 1.14, written by Peter Selinger 2001-2017
</metadata>
<g transform="translate(0.000000,792.000000) scale(0.100000,-0.100000)"
fill="#000000" stroke="none">
<path d="M0 5595 l0 -1245 3955 0 c2175 0 3955 2 3955 5 0 3 -557 563 -1238
1245 l-1238 1240 -2717 0 -2717 0 0 -1245z"/>
<path d="M35 3559 c-3 -4 -12 -6 -20 -2 -13 4 -15 -150 -15 -1241 l0 -1246
2717 0 2717 0 1239 1241 c681 682 1237 1243 1234 1245 -6 7 -107 7 -113 1 -3
-3 -21 -1 -40 3 -19 5 -37 4 -40 -1 -3 -5 -9 -7 -14 -4 -4 3 -72 5 -151 4 -79
0 -153 0 -164 0 -17 1 -40 1 -100 -1 -43 -1 -534 1 -550 2 -11 1 -27 1 -35 1
-8 0 -112 0 -230 0 -118 1 -228 0 -245 -1 -16 -1 -37 -2 -45 -1 -8 1 -31 1
-50 0 -43 -2 -52 -2 -163 1 -49 1 -90 0 -93 -3 -3 -2 -21 -1 -40 3 -19 5 -37
4 -40 -1 -3 -5 -10 -7 -15 -3 -6 3 -40 5 -77 4 -37 -1 -74 -1 -82 -1 -8 1 -31
1 -50 0 -19 0 -39 -1 -45 -1 -18 0 -360 1 -380 1 -11 1 -36 1 -55 0 -19 0 -39
-1 -45 -1 -40 0 -374 1 -390 2 -24 1 -19 1 -120 0 -71 -1 -216 -1 -270 0 -11
0 -36 0 -55 -1 -43 -2 -52 -2 -163 1 -49 1 -90 0 -93 -3 -3 -2 -21 -1 -40 3
-19 5 -37 4 -40 -1 -3 -5 -9 -7 -14 -4 -4 3 -72 5 -151 4 -79 0 -153 0 -164 0
-17 1 -40 1 -100 -1 -43 -1 -534 1 -550 2 -11 1 -27 1 -35 1 -8 0 -112 0 -230
0 -118 1 -228 0 -245 -1 -16 -1 -37 -2 -45 -1 -8 1 -31 1 -50 0 -43 -2 -52 -2
-163 1 -49 1 -90 0 -93 -3 -3 -2 -21 -1 -40 3 -19 5 -37 4 -40 -1 -3 -5 -10
-7 -15 -3 -6 3 -40 5 -77 4 -37 -1 -74 -1 -82 -1 -8 1 -31 1 -50 0 -19 0 -39
-1 -45 -1 -18 0 -360 1 -380 1 -11 1 -36 1 -55 0 -19 0 -39 -1 -45 -1 -40 0
-374 1 -390 2 -24 1 -19 1 -120 0 -71 -1 -216 -1 -270 0 -11 0 -36 0 -55 -1
-43 -2 -52 -2 -163 1 -49 1 -90 0 -93 -3 -3 -2 -21 -1 -40 3 -19 4 -36 4 -39
-1z"/>
</g>
</svg>
