<?xml version="1.0" encoding="UTF-8"?>
<svg version="1.1" viewBox="0 0 884.4 306.2" xml:space="preserve" xmlns="http://www.w3.org/2000/svg" class="graw-logo h-5">
<style type="text/css">
	.st0{fill:#FFFFFF;}
	.st1{fill:#00D37E;}
	.st2{fill:#6BDFF0;}
</style>
    <g transform="translate(0 79.4)">
        <path class="st0"
              d="m851.8 0v102.33c0 5.5834-3.5 9.441-9 9.441-4.9 0-8.1-3.2486-9-7.4107l-12.5-57.864c-4.4-21.217-19.8-34.82-39.3-34.82s-34.9 13.603-39.3 34.82l-12.5 57.864c-0.9 4.162-4.1 7.4107-9 7.4107-5.5 0-9-3.8576-9-9.441v-102.33h-32.6v103.14c0 25.379 17.2 44.261 41.3 44.261 19.2 0 34.3-13.603 39-34.211l12.5-58.168c1.2-4.9742 4.7-7.7151 9.6-7.7151s8.4 2.6394 9.6 7.7151l12.5 58.168c4.7 20.709 19.8 34.211 39 34.211 24.1 0 41.3-18.882 41.3-44.261v-103.14z"
              stroke-width="1.0075"/>
        <path class="st0"
              d="m621.5 0v12.5c-11.7-7.9-25.9-12.5-41.1-12.5-40.7 0-73.7 33-73.7 73.7s33 73.7 73.7 73.7c15.2 0 29.4-4.6 41.1-12.5v12.5h32.6v-147.4zm-41.1 114.8c-22.7 0-41.1-18.4-41.1-41.1s18.4-41.1 41.1-41.1 41.1 18.4 41.1 41.1-18.4 41.1-41.1 41.1z"/>
        <path class="st0"
              d="m484.7 0c-40.7 0-73.7 33-73.7 73.7v73.7h32.6v-73.7c0-22.7 18.4-41.1 41.1-41.1h12.8v-32.6z"/>
        <path class="st0"
              d="m317.5 0c-40.7 0-73.7 33-73.7 73.7s33 73.7 73.7 73.7c15.2 0 29.4-4.6 41.1-12.5v18.2c0 22.7-18.4 41.1-41.1 41.1h-12.8v32.6h12.8c40.5 0 73.3-32.6 73.7-73v-80.1c0-40.7-33-73.7-73.7-73.7zm0 114.8c-22.7 0-41.1-18.4-41.1-41.1s18.4-41.1 41.1-41.1 41.1 18.4 41.1 41.1-18.4 41.1-41.1 41.1z"/>
    </g>
    <polygon class="st1" transform="matrix(1 0 0 1.0194 0 77.973)" points="198.4 63.8 136.1 1.4 0 1.4 0 63.8"/>
    <polygon class="st2" transform="matrix(1 0 0 1.0194 0 77.973)" points="136.1 146 198.4 83.6 0 83.6 0 146"/>
</svg>
